<svg width="86" height="86" viewBox="0 0 86 86" fill="none" xmlns="http://www.w3.org/2000/svg">
<path d="M66.382 84.3841H19.6174C9.67564 84.3841 1.61621 76.3247 1.61621 66.3829V19.6183C1.61621 9.67662 9.67564 1.61719 19.6174 1.61719H66.382C76.3237 1.61719 84.3831 9.67662 84.3831 19.6183V66.3829C84.3831 76.3247 76.3237 84.3841 66.382 84.3841Z" fill="black"/>
<mask id="mask0_1327_2225" style="mask-type:luminance" maskUnits="userSpaceOnUse" x="1" y="1" width="84" height="84">
<path d="M66.382 84.3841H19.6174C9.67564 84.3841 1.61621 76.3247 1.61621 66.3829V19.6183C1.61621 9.67662 9.67564 1.61719 19.6174 1.61719H66.382C76.3237 1.61719 84.3831 9.67662 84.3831 19.6183V66.3829C84.3831 76.3247 76.3237 84.3841 66.382 84.3841Z" fill="white"/>
</mask>
<g mask="url(#mask0_1327_2225)">
<path d="M66.382 84.3841H19.6174C9.67564 84.3841 1.61621 76.3247 1.61621 66.3829V19.6183C1.61621 9.67662 9.67564 1.61719 19.6174 1.61719H66.382C76.3237 1.61719 84.3831 9.67662 84.3831 19.6183V66.3829C84.3831 76.3247 76.3237 84.3841 66.382 84.3841Z" fill="#00B771"/>
</g>
<mask id="mask1_1327_2225" style="mask-type:luminance" maskUnits="userSpaceOnUse" x="1" y="1" width="84" height="84">
<path d="M66.382 84.3841H19.6174C9.67564 84.3841 1.61621 76.3247 1.61621 66.3829V19.6183C1.61621 9.67662 9.67564 1.61719 19.6174 1.61719H66.382C76.3237 1.61719 84.3831 9.67662 84.3831 19.6183V66.3829C84.3831 76.3247 76.3237 84.3841 66.382 84.3841Z" fill="white"/>
</mask>
<g mask="url(#mask1_1327_2225)">
<path d="M65.0742 54.3667V63.7504C65.0742 64.388 64.5556 64.9033 63.9122 64.9033H59.265C49.0258 64.9033 39.3983 60.9454 32.1562 53.7596C24.9141 46.5737 20.9258 37.0212 20.9258 26.861V22.2506C20.9258 21.6124 21.4444 21.0977 22.0878 21.0977H31.3977C32.6063 21.0977 33.6518 21.8665 33.9926 22.9961L36.409 32.9948C36.4555 33.1898 36.4507 33.3936 36.395 33.5862C36.3394 33.7788 36.2348 33.9538 36.0915 34.094L33.0628 37.0296C32.7769 37.303 32.5837 37.6589 32.5101 38.0476C32.4364 38.4362 32.4861 38.8381 32.6522 39.1971C33.3059 40.5712 34.062 41.8943 34.914 43.155C35.972 44.7012 37.1727 46.1447 38.5002 47.4667C39.8345 48.7857 41.2892 49.977 42.8454 51.025C44.1173 51.8759 45.4536 52.6263 46.8422 53.2694C47.2027 53.434 47.6053 53.4832 47.9949 53.4103C48.3845 53.3374 48.7421 53.1459 49.0187 52.8621L52.4884 49.3496C52.6364 49.1986 52.8229 49.0908 53.0277 49.0379C53.2324 48.985 53.4478 48.9891 53.6504 49.0496L63.3012 51.8391C63.8189 52.0298 64.2661 52.374 64.5829 52.8256C64.8998 53.2773 65.0712 53.815 65.0742 54.3667Z" fill="white"/>
</g>
</svg>
