<svg width="86" height="86" viewBox="0 0 86 86" fill="none" xmlns="http://www.w3.org/2000/svg">
<g clip-path="url(#clip0_1327_2248)">
<path d="M75.25 0H10.75C4.82137 0 0 4.82137 0 10.75V75.25C0 81.1786 4.82137 86 10.75 86H75.25C81.1786 86 86 81.1786 86 75.25V10.75C86 4.82137 81.1786 0 75.25 0Z" fill="#1976D2"/>
<path d="M72.5625 43H59.125V32.25C59.125 29.283 61.533 29.5625 64.5 29.5625H69.875V16.125H59.125C50.2186 16.125 43 23.3436 43 32.25V43H32.25V56.4375H43V86H59.125V56.4375H67.1875L72.5625 43Z" fill="#FAFAFA"/>
</g>
<defs>
<clipPath id="clip0_1327_2248">
<rect width="86" height="86" fill="white"/>
</clipPath>
</defs>
</svg>
