<svg width="86" height="86" viewBox="0 0 86 86" fill="none" xmlns="http://www.w3.org/2000/svg">
<g clip-path="url(#clip0_1327_2217)">
<path d="M5.37494 5.85238C-1.38323 12.8721 -5.9098e-05 20.329 -5.9098e-05 42.9829C-5.9098e-05 61.7954 -3.28239 80.6545 13.8961 85.0942C19.2604 86.4738 66.7897 86.4738 72.1468 85.087C79.2991 83.2416 85.1184 77.4402 85.9139 67.3245C86.025 65.9126 86.025 20.0782 85.9104 18.6377C85.0647 7.86263 78.4319 1.65271 69.6922 0.394964C67.6891 0.104714 67.2878 0.0187136 57.0108 0.000796944C20.5575 0.0187136 12.5667 -1.60454 5.37494 5.85238Z" fill="url(#paint0_linear_1327_2217)"/>
<path d="M42.9928 11.2494C29.9817 11.2494 17.6264 10.092 12.9072 22.2036C10.9578 27.206 11.2409 33.7026 11.2409 43.0049C11.2409 51.1677 10.9793 58.8396 12.9072 63.8026C17.6157 75.9214 30.0713 74.7604 42.9857 74.7604C55.4449 74.7604 68.2912 76.0576 73.0677 63.8026C75.0207 58.7501 74.734 52.3502 74.734 43.0049C74.734 30.5994 75.4184 22.5906 69.402 16.5778C63.3103 10.4861 55.0722 11.2494 42.9785 11.2494H42.9928ZM40.1477 16.972C67.2878 16.929 70.7422 13.9118 68.8358 55.8261C68.1586 70.6503 56.8711 69.0235 42.9964 69.0235C17.6981 69.0235 16.9707 68.2996 16.9707 42.9906C16.9707 17.3876 18.9773 16.9863 40.1477 16.9648V16.972ZM59.942 22.2431C58.9318 22.2431 57.9629 22.6444 57.2486 23.3587C56.5342 24.0731 56.1329 25.0419 56.1329 26.0521C56.1329 27.0624 56.5342 28.0312 57.2486 28.7456C57.9629 29.4599 58.9318 29.8612 59.942 29.8612C60.9522 29.8612 61.9211 29.4599 62.6354 28.7456C63.3498 28.0312 63.7511 27.0624 63.7511 26.0521C63.7511 25.0419 63.3498 24.0731 62.6354 23.3587C61.9211 22.6444 60.9522 22.2431 59.942 22.2431ZM42.9928 26.6971C40.8515 26.6974 38.7312 27.1194 36.7529 27.939C34.7747 28.7587 32.9773 29.96 31.4633 31.4743C28.4057 34.5326 26.6882 38.6803 26.6887 43.0049C26.6891 47.3295 28.4075 51.4768 31.4658 54.5344C34.5241 57.5921 38.6718 59.3095 42.9964 59.3091C47.321 59.3086 51.4683 57.5902 54.5259 54.5319C57.5836 51.4736 59.301 47.3259 59.3006 43.0013C59.3001 38.6767 57.5817 34.5294 54.5234 31.4718C51.4651 28.4142 47.3174 26.6967 42.9928 26.6971ZM42.9928 32.4197C56.9857 32.4197 57.0037 53.5901 42.9928 53.5901C29.0035 53.5901 28.982 32.4197 42.9928 32.4197Z" fill="white"/>
</g>
<defs>
<linearGradient id="paint0_linear_1327_2217" x1="5.53985" y1="80.5079" x2="85.4677" y2="11.3312" gradientUnits="userSpaceOnUse">
<stop stop-color="#FFDD55"/>
<stop offset="0.5" stop-color="#FF543E"/>
<stop offset="1" stop-color="#C837AB"/>
</linearGradient>
<clipPath id="clip0_1327_2217">
<rect width="86" height="86" fill="white"/>
</clipPath>
</defs>
</svg>
