<svg width="86" height="86" viewBox="0 0 86 86" fill="none" xmlns="http://www.w3.org/2000/svg">
<g clip-path="url(#clip0_1327_2207)">
<path d="M74.2727 0H11.7273C5.25048 0 0 5.25048 0 11.7273V74.2727C0 80.7495 5.25048 86 11.7273 86H74.2727C80.7495 86 86 80.7495 86 74.2727V11.7273C86 5.25048 80.7495 0 74.2727 0Z" fill="#0077B5"/>
<path d="M30.9797 23.4545C30.9797 24.9042 30.5498 26.3213 29.7444 27.5266C28.939 28.732 27.7943 29.6714 26.455 30.2262C25.1157 30.7809 23.642 30.9261 22.2202 30.6433C20.7984 30.3604 19.4924 29.6624 18.4673 28.6373C17.4423 27.6123 16.7442 26.3063 16.4614 24.8845C16.1786 23.4627 16.3237 21.989 16.8785 20.6497C17.4332 19.3104 18.3727 18.1656 19.578 17.3603C20.7834 16.5549 22.2005 16.125 23.6501 16.125C25.594 16.125 27.4583 16.8972 28.8329 18.2718C30.2074 19.6463 30.9797 21.5106 30.9797 23.4545ZM29.3183 35.6705V68.0524C29.3196 68.2913 29.2736 68.5281 29.1831 68.7491C29.0926 68.9702 28.9593 69.1712 28.7908 69.3406C28.6223 69.51 28.422 69.6444 28.2015 69.7361C27.9809 69.8278 27.7443 69.875 27.5054 69.875H19.7801C19.5412 69.8756 19.3046 69.8291 19.0837 69.7379C18.8629 69.6468 18.6623 69.513 18.4933 69.344C18.3244 69.1751 18.1906 68.9745 18.0994 68.7537C18.0083 68.5328 17.9617 68.2962 17.9624 68.0573V35.6705C17.9624 35.1884 18.1539 34.726 18.4948 34.3851C18.8357 34.0442 19.298 33.8527 19.7801 33.8527H27.5054C27.9867 33.854 28.4478 34.0461 28.7876 34.3869C29.1275 34.7276 29.3183 35.1892 29.3183 35.6705ZM69.6992 52.5284V68.2039C69.6998 68.4235 69.6571 68.6411 69.5733 68.8441C69.4895 69.0472 69.3665 69.2317 69.2112 69.387C69.0559 69.5423 68.8714 69.6654 68.6683 69.7491C68.4653 69.8329 68.2477 69.8756 68.0281 69.875H59.7212C59.5016 69.8756 59.284 69.8329 59.081 69.7491C58.8779 69.6654 58.6934 69.5423 58.5381 69.387C58.3828 69.2317 58.2598 69.0472 58.176 68.8441C58.0922 68.6411 58.0495 68.4235 58.0501 68.2039V53.0122C58.0501 50.7449 58.7146 43.0831 52.1229 43.0831C47.0167 43.0831 45.9759 48.3261 45.7707 50.6814V68.2039C45.7707 68.6429 45.598 69.0643 45.2899 69.377C44.9817 69.6897 44.5629 69.8686 44.124 69.875H36.1006C35.8813 69.875 35.6643 69.8317 35.4618 69.7477C35.2593 69.6637 35.0754 69.5405 34.9206 69.3852C34.7658 69.23 34.6432 69.0457 34.5597 68.843C34.4763 68.6403 34.4337 68.4231 34.4343 68.2039V35.5288C34.4337 35.3095 34.4763 35.0923 34.5597 34.8896C34.6432 34.6869 34.7658 34.5026 34.9206 34.3474C35.0754 34.1921 35.2593 34.069 35.4618 33.9849C35.6643 33.9009 35.8813 33.8576 36.1006 33.8576H44.124C44.5672 33.8576 44.9922 34.0337 45.3056 34.3471C45.619 34.6605 45.7951 35.0855 45.7951 35.5288V38.3531C47.691 35.5092 50.5007 33.3152 56.4962 33.3152C69.7774 33.3152 69.6992 45.7168 69.6992 52.5284Z" fill="white"/>
</g>
<defs>
<clipPath id="clip0_1327_2207">
<rect width="86" height="86" fill="white"/>
</clipPath>
</defs>
</svg>
