<svg width="86" height="86" viewBox="0 0 86 86" fill="none" xmlns="http://www.w3.org/2000/svg">
<path d="M22.998 1.40039H20.778C18.9281 1.49289 16.5231 1.58539 15.5056 1.86288C13.8407 2.23287 12.2682 2.69536 10.9733 3.34284C9.49329 4.08282 8.10582 5.1003 6.90335 6.30277C5.70088 7.50524 4.77591 8.80021 3.94343 10.3727C3.29594 11.6676 2.74096 13.2401 2.46346 14.8126C2.27847 15.9225 2.09347 18.3275 2.00098 20.1774V65.2238C2.09347 67.0737 2.18597 69.4787 2.46346 70.4962C2.83346 72.1611 3.29594 73.7336 3.94343 75.0285C4.68341 76.5085 5.70088 77.896 6.90335 79.0984C8.10582 80.3009 9.40079 81.2259 10.9733 82.0584C12.2682 82.7058 13.8407 83.2608 15.4131 83.5383C16.5231 83.7233 18.9281 83.9083 20.778 84.0008H65.8244C67.6743 83.9083 70.0793 83.8158 71.0967 83.5383C72.7617 83.1683 74.3342 82.7058 75.6291 82.0584C77.1091 81.3184 78.4966 80.3009 79.699 79.0984C80.9015 77.896 81.8265 76.601 82.659 75.0285C83.3064 73.7336 83.8614 72.1611 84.1389 70.5887C84.3239 69.4787 84.5089 67.0737 84.6014 65.2238V20.1774C84.5089 18.3275 84.4164 15.9225 84.1389 14.9051C83.7689 13.2401 83.3064 11.6676 82.659 10.3727C81.919 8.8927 80.9015 7.50524 79.699 6.30277C78.4966 5.1003 77.2016 4.17532 75.6291 3.34284C74.3342 2.69536 72.7617 2.14037 71.1892 1.86288C70.0793 1.67788 67.6743 1.49289 65.8244 1.40039H63.6044H22.998Z" fill="url(#paint0_linear_1327_2240)"/>
<path d="M58.3322 47.0948C57.5922 46.7248 53.8923 44.9674 53.2448 44.6899C52.5973 44.4124 52.0423 44.3199 51.5798 45.0599C51.1174 45.7999 49.6374 47.4648 49.2674 47.9273C48.8049 48.3898 48.4349 48.4823 47.6949 48.1123C46.955 47.7423 44.55 47.0023 41.6826 44.5049C39.4627 42.5624 37.9827 40.1575 37.5202 39.4175C37.0577 38.6775 37.5202 38.3076 37.8902 37.9376C38.2602 37.5676 38.6302 37.1051 39.0002 36.6426C39.3702 36.1801 39.4627 35.9026 39.7401 35.4401C40.0176 34.9776 39.8326 34.5152 39.6476 34.1452C39.4627 33.7752 37.9827 30.1678 37.3352 28.6878C36.6877 27.3003 36.1327 27.4853 35.6702 27.3928H34.2828C33.8203 27.3928 32.9878 27.5778 32.3403 28.3178C31.6928 29.0578 29.7504 30.8152 29.7504 34.4227C29.7504 38.0301 32.4328 41.4525 32.8028 42.0075C33.1728 42.4699 38.0752 49.8698 45.475 53.0147C47.2325 53.7547 48.6199 54.2172 49.7299 54.5871C51.4874 55.1421 53.1523 55.0496 54.4473 54.8646C55.8347 54.6796 58.8872 53.1072 59.4422 51.4422C60.0896 49.7773 60.0896 48.2973 59.9046 48.0198C59.5347 47.6498 59.0722 47.4648 58.3322 47.0948ZM44.18 66.1494C39.7401 66.1494 35.4853 64.9469 31.6928 62.7269L30.7679 62.1719L21.5181 64.5769L24.0155 55.6046L23.4606 54.6796C21.0556 50.7947 19.7606 46.3549 19.7606 41.73C19.7606 28.3178 30.7679 17.4031 44.2725 17.4031C50.6549 17.4031 56.8522 19.9005 61.4771 24.5254C66.102 29.1503 68.5994 35.2551 68.5994 41.73C68.5994 55.1421 57.5922 66.1494 44.18 66.1494ZM64.992 21.0105C59.4422 15.4606 52.0423 12.4082 44.18 12.4082C27.9929 12.4082 14.7658 25.5429 14.7658 41.73C14.7658 46.9098 16.1532 51.9047 18.6507 56.3446L14.4883 71.5142L30.0279 67.4443C34.2828 69.7568 39.1852 71.0517 44.0875 71.0517C60.2746 71.0517 73.5018 57.9171 73.5018 41.73C73.5943 33.9602 70.5419 26.5603 64.992 21.0105Z" fill="white"/>
<defs>
<linearGradient id="paint0_linear_1327_2240" x1="43.3289" y1="1.41889" x2="43.3289" y2="83.9453" gradientUnits="userSpaceOnUse">
<stop stop-color="#62FA7F"/>
<stop offset="0.686" stop-color="#22CC40"/>
<stop offset="1" stop-color="#05B723"/>
</linearGradient>
</defs>
</svg>
